<svg xmlns="http://www.w3.org/2000/svg" viewBox="0 0 35.1 32.12"><defs><style>.cls-1{fill:#f09199;}.cls-2,.cls-4{fill:none;stroke-miterlimit:10;}.cls-2{stroke:#e73656;stroke-width:1.5px;}.cls-3{fill:#ea5532;}.cls-4{stroke:#e60012;stroke-width:1.1px;}</style></defs><g id="레이어_2" data-name="레이어 2"><g id="레이어_1-2" data-name="레이어 1"><path class="cls-1" d="M33.3.8,22.09,3.49A.87.87,0,0,0,21.59,5l1.73,2-6.68,5.81A10.17,10.17,0,1,0,20,16.7l6.68-5.81,1.72,2a.87.87,0,0,0,1.6-.27L34.24,1.88c.32-.8-.11-1.29-.94-1.08"/><path class="cls-2" d="M33.3.8,22.09,3.49A.87.87,0,0,0,21.59,5l1.73,2-6.68,5.81A10.17,10.17,0,1,0,20,16.7l6.68-5.81,1.72,2a.87.87,0,0,0,1.6-.27L34.24,1.88C34.56,1.08,34.13.59,33.3.8Z"/><path class="cls-3" d="M14.19,18.36a4.13,4.13,0,1,0-.41,5.83,4.14,4.14,0,0,0,.41-5.83"/><path class="cls-4" d="M14.19,18.36a4.13,4.13,0,1,0-.41,5.83A4.14,4.14,0,0,0,14.19,18.36Z"/></g></g></svg>