<svg xmlns="http://www.w3.org/2000/svg" viewBox="0 0 195.19 195.19"><defs><style>.cls-1{fill:#fff;}.cls-2{fill:#bce1df;}.cls-3,.cls-4{fill:none;stroke:#fff;stroke-miterlimit:10;}.cls-4{stroke-dasharray:3.03 3.03;}</style></defs><g id="레이어_2" data-name="레이어 2"><g id="레이어_1-2" data-name="레이어 1"><path class="cls-1" d="M39.16,175.75A97.59,97.59,0,1,0,19.44,39.16,97.57,97.57,0,0,0,39.16,175.75ZM155.58,20A96.84,96.84,0,1,1,20,39.61,96.84,96.84,0,0,1,155.58,20Z"/><path class="cls-2" d="M4.61,70.48l-.09.33q-.27.91-.51,1.83l-.21.79c-.11.46-.23.91-.34,1.37s-.19.82-.29,1.23L3,77c-.12.54-.23,1.08-.34,1.63,0,.18-.07.36-.11.55q-.19,1-.36,2a1.18,1.18,0,0,1,0,.2,97,97,0,0,0-.67,27.77v.06c.09.71.18,1.41.28,2.11,0,.11,0,.22.05.33.09.61.18,1.22.29,1.83,0,.2.06.41.1.61.09.51.18,1,.28,1.53,0,.31.11.61.17.92s.17.81.25,1.21l.27,1.22.21.91c.12.5.24,1,.37,1.5l.15.61.48,1.78c0,.11.06.22.1.33.19.68.39,1.36.59,2l0,.07A96.56,96.56,0,0,0,17,151.24l.12.18c.37.55.75,1.11,1.14,1.66l.32.46,1,1.35.58.77.76,1c.28.37.58.74.87,1.11l.51.64c.4.49.8,1,1.21,1.46l.22.27A96.43,96.43,0,0,0,43.57,178l.13.09,1.14.74,1.13.74.14.08a96.27,96.27,0,0,0,24.37,11l.34.09c.6.18,1.21.35,1.82.51l.8.21,1.36.34L76,192l.94.21,1.63.34.55.11,2,.36.21,0a96.15,96.15,0,0,0,27.76.67h.06l2.11-.28.34-.05,1.82-.29.62-.1,1.52-.28.91-.17,1.23-.26,1.2-.26.92-.21,1.5-.37.61-.15,1.78-.48.33-.1c.68-.19,1.36-.39,2-.6l.07,0a96.44,96.44,0,0,0,25.09-11.89l.17-.11c.56-.38,1.12-.75,1.67-1.14l.46-.32,1.35-1,.77-.58,1-.76,1.11-.87.64-.51c.49-.4,1-.8,1.46-1.21l.27-.22A96.43,96.43,0,0,0,178,151.62l.09-.13.74-1.14c.25-.38.5-.76.74-1.14l.08-.13a96.27,96.27,0,0,0,11-24.37l.09-.34c.18-.61.35-1.21.51-1.82l.21-.8c.11-.45.23-.91.34-1.36s.19-.82.29-1.23l.21-.94c.12-.54.23-1.09.34-1.63,0-.18.07-.36.11-.55l.36-2,0-.21a96.15,96.15,0,0,0,.67-27.76V86c-.09-.7-.18-1.4-.28-2.1,0-.11,0-.22-.05-.34-.09-.6-.19-1.21-.29-1.82,0-.2-.07-.41-.1-.62-.09-.51-.18-1-.28-1.52-.06-.31-.11-.61-.18-.92s-.16-.81-.25-1.21-.17-.81-.26-1.22l-.21-.91c-.12-.5-.24-1-.37-1.5l-.15-.61-.48-1.78c0-.11-.07-.22-.1-.33-.19-.68-.39-1.36-.6-2l0-.07A96.44,96.44,0,0,0,178.23,44a1.74,1.74,0,0,0-.11-.18c-.38-.56-.75-1.11-1.14-1.66l-.32-.46-1-1.35-.58-.77-.76-1-.87-1.11-.51-.64c-.4-.49-.8-1-1.21-1.46l-.22-.27a96.43,96.43,0,0,0-19.92-17.81l-.13-.09-1.14-.74-1.14-.74-.13-.08a96.42,96.42,0,0,0-24.37-11l-.33-.09L122.55,4l-.79-.21-1.37-.34-1.23-.29L118.22,3l-1.63-.34L116,2.51c-.66-.13-1.32-.25-2-.36l-.2,0a96.87,96.87,0,0,0-27.76-.67H86l-2.11.28-.33.05c-.61.09-1.22.18-1.83.29l-.62.1-1.52.28-.92.17-1.21.25-1.22.27-.91.21-1.5.37-.62.15-1.77.48-.33.09-2,.6-.07,0A96.41,96.41,0,0,0,44,17l-.18.12c-.56.37-1.11.75-1.66,1.14l-.46.32-1.35,1-.78.58-1,.76c-.37.28-.74.58-1.11.87l-.64.51L35.3,23.43l-.26.22A96.43,96.43,0,0,0,17.23,43.57l-.09.13c-.25.38-.5.76-.74,1.14s-.5.75-.74,1.13l-.08.14A96.27,96.27,0,0,0,4.61,70.48Z"/><line class="cls-3" x1="66.93" y1="189.47" x2="67.41" y2="188.05"/><line class="cls-4" x1="68.37" y1="185.17" x2="127.3" y2="8.58"/><line class="cls-3" x1="127.78" y1="7.14" x2="128.25" y2="5.72"/><line class="cls-3" x1="126.79" y1="189.94" x2="126.34" y2="188.51"/><line class="cls-4" x1="125.43" y1="185.63" x2="69.3" y2="8.12"/><line class="cls-3" x1="68.85" y1="6.68" x2="68.4" y2="5.24"/><line class="cls-3" x1="175.5" y1="155.14" x2="174.29" y2="154.25"/><line class="cls-4" x1="171.86" y1="152.45" x2="22.11" y2="41.83"/><line class="cls-3" x1="20.9" y1="40.94" x2="19.69" y2="40.04"/><line class="cls-3" x1="194.45" y1="98.36" x2="192.95" y2="98.35"/><line class="cls-4" x1="189.92" y1="98.33" x2="3.76" y2="96.85"/><line class="cls-3" x1="2.24" y1="96.84" x2="0.74" y2="96.83"/><line class="cls-3" x1="176.4" y1="41.29" x2="175.18" y2="42.16"/><line class="cls-4" x1="172.72" y1="43.92" x2="21.24" y2="152.15"/><line class="cls-3" x1="20.01" y1="153.03" x2="18.79" y2="153.9"/></g></g></svg>