<svg xmlns="http://www.w3.org/2000/svg" viewBox="0 0 287.04 287.04"><defs><style>.cls-1{fill:#fcc80e;}.cls-2{fill:#ffe67a;}.cls-3,.cls-4{fill:none;stroke:#fff;stroke-miterlimit:10;}.cls-4{stroke-dasharray:3.03 3.03;}</style></defs><g id="레이어_2" data-name="레이어 2"><g id="레이어_1-2" data-name="레이어 1"><path class="cls-1" d="M229.46,28.58a143.52,143.52,0,1,0,29,200.88A143.53,143.53,0,0,0,229.46,28.58Zm-171.21,229a142.4,142.4,0,1,1,199.32-28.78A142.4,142.4,0,0,1,58.25,257.57Z"/><path class="cls-2" d="M280.26,183.4l.14-.5c.26-.89.51-1.78.75-2.68l.3-1.17.51-2,.42-1.81c.1-.46.21-.92.31-1.38.17-.8.34-1.59.5-2.39.05-.27.11-.54.16-.81.19-1,.36-2,.53-2.92,0-.1,0-.2.05-.3a142,142,0,0,0,1-40.82v-.1c-.13-1-.27-2.07-.41-3.1,0-.16-.05-.33-.08-.49-.13-.89-.27-1.79-.42-2.68l-.15-.91c-.13-.75-.26-1.5-.41-2.25-.08-.45-.17-.89-.26-1.34s-.24-1.19-.37-1.79-.25-1.19-.39-1.79l-.3-1.33-.54-2.21-.24-.91c-.22-.87-.46-1.74-.7-2.61,0-.16-.09-.32-.14-.48-.28-1-.57-2-.88-3l0-.1a141.89,141.89,0,0,0-17.48-36.9c-.06-.09-.12-.17-.17-.26-.55-.82-1.11-1.64-1.67-2.45l-.48-.67c-.47-.66-.94-1.33-1.43-2l-.84-1.14c-.37-.5-.74-1-1.12-1.48s-.85-1.09-1.28-1.63l-.76-1c-.58-.72-1.17-1.44-1.77-2.15l-.33-.39A141.38,141.38,0,0,0,223,25.33l-.18-.12-1.67-1.1L219.43,23l-.19-.12A141.86,141.86,0,0,0,183.4,6.78l-.5-.14c-.89-.26-1.78-.51-2.68-.74l-1.17-.31-2-.5-1.8-.42-1.39-.32-2.39-.49-.81-.17-2.92-.53-.3-.05a141.6,141.6,0,0,0-40.82-1h-.1c-1,.12-2.06.26-3.09.41l-.5.07c-.9.13-1.79.27-2.68.42l-.91.15-2.25.41-1.34.26L114,4.23c-.6.12-1.19.25-1.78.39l-1.34.31c-.74.17-1.48.35-2.21.54l-.9.23c-.88.22-1.75.46-2.62.7l-.48.14c-1,.28-2,.57-3,.88l-.1,0a142.21,142.21,0,0,0-36.9,17.48l-.26.17c-.82.55-1.64,1.11-2.45,1.68l-.67.47-2,1.43-1.13.85-1.48,1.11c-.55.43-1.09.85-1.63,1.29l-1,.75c-.72.58-1.44,1.17-2.15,1.77l-.39.33a141.64,141.64,0,0,0-26.2,29.3l-.12.19c-.37.55-.73,1.11-1.1,1.67L23,67.61l-.12.2A141.64,141.64,0,0,0,6.78,103.64c0,.17-.09.34-.14.5-.26.89-.51,1.79-.74,2.68-.11.39-.21.78-.31,1.17-.17.67-.34,1.34-.5,2s-.29,1.2-.42,1.81c-.11.46-.22.92-.32,1.38-.17.8-.33,1.6-.49,2.39-.06.27-.11.54-.17.81-.18,1-.36,2-.53,2.92,0,.1,0,.2-.05.3a142,142,0,0,0-1,40.82l0,.1c.12,1,.26,2.07.41,3.1,0,.16,0,.33.07.5q.19,1.34.42,2.67l.15.92c.13.74.27,1.49.41,2.23.08.45.17.91.26,1.36s.24,1.19.37,1.78.25,1.19.39,1.79c.1.44.2.89.31,1.33q.25,1.11.54,2.22c.07.3.15.59.23.89.22.88.46,1.75.7,2.62,0,.16.09.32.14.48.28,1,.57,2,.88,3l0,.09a142.21,142.21,0,0,0,17.48,36.9l.18.26c.54.82,1.1,1.64,1.67,2.45l.47.67c.47.67.95,1.33,1.43,2,.28.39.56.77.85,1.15l1.11,1.47L31.92,232c.25.32.5.64.76.95.58.72,1.17,1.44,1.77,2.15l.33.39a141.64,141.64,0,0,0,29.3,26.2l.19.13c.55.37,1.11.73,1.67,1.09L67.61,264l.2.12a141.45,141.45,0,0,0,35.83,16.13l.5.14c.89.26,1.79.51,2.68.75l1.17.3,2,.51,1.81.42,1.38.31,2.4.5.8.16c1,.19,2,.36,2.93.53l.29.05a142,142,0,0,0,40.82,1h.1l3.1-.41.49-.08c.9-.13,1.79-.27,2.68-.42l.91-.15c.75-.13,1.5-.26,2.25-.41l1.34-.26,1.79-.37c.6-.12,1.19-.25,1.79-.39l1.34-.3,2.2-.54.91-.23,2.61-.71.48-.13c1-.29,2-.58,3-.89l.11,0a142,142,0,0,0,36.89-17.48l.26-.17,2.45-1.67.67-.48c.67-.47,1.33-.94,2-1.43l1.15-.85,1.47-1.11,1.64-1.28.94-.75c.72-.59,1.44-1.18,2.15-1.78l.39-.32A141.7,141.7,0,0,0,261.71,223l.13-.18c.37-.56.73-1.12,1.09-1.68l1.08-1.67.12-.2A141.45,141.45,0,0,0,280.26,183.4Z"/><line class="cls-3" x1="188.61" y1="8.41" x2="188.13" y2="9.83"/><line class="cls-4" x1="187.17" y1="12.71" x2="99.39" y2="275.77"/><line class="cls-3" x1="98.91" y1="277.21" x2="98.43" y2="278.63"/><line class="cls-3" x1="100.58" y1="7.71" x2="101.03" y2="9.14"/><line class="cls-4" x1="101.95" y1="12.03" x2="185.55" y2="276.45"/><line class="cls-3" x1="186.01" y1="277.9" x2="186.46" y2="279.33"/><line class="cls-3" x1="28.96" y1="58.89" x2="30.16" y2="59.78"/><line class="cls-4" x1="32.6" y1="61.58" x2="255.66" y2="226.36"/><line class="cls-3" x1="256.88" y1="227.26" x2="258.08" y2="228.15"/><line class="cls-3" x1="1.09" y1="142.39" x2="2.59" y2="142.4"/><line class="cls-4" x1="5.62" y1="142.43" x2="282.94" y2="144.63"/><line class="cls-3" x1="284.45" y1="144.64" x2="285.95" y2="144.65"/><line class="cls-3" x1="27.63" y1="226.32" x2="28.85" y2="225.45"/><line class="cls-4" x1="31.32" y1="223.69" x2="256.96" y2="62.47"/><line class="cls-3" x1="258.19" y1="61.59" x2="259.41" y2="60.72"/></g></g></svg>