<svg xmlns="http://www.w3.org/2000/svg" viewBox="0 0 287.05 287.06"><defs><style>.cls-1{fill:#fcc80e;}.cls-2{fill:#ffe67a;}.cls-10,.cls-12,.cls-3,.cls-4{fill:none;}.cls-3,.cls-4{stroke:#fff;}.cls-10,.cls-12,.cls-3,.cls-4,.cls-8{stroke-miterlimit:10;}.cls-4{stroke-dasharray:3.03 3.03;}.cls-5{fill:#fff;}.cls-6{fill:#bce1df;}.cls-7{fill:#0083c9;}.cls-8{fill:#52a5dc;stroke:#0083c9;}.cls-9{fill:#f09199;}.cls-10{stroke:#e73656;stroke-width:1.5px;}.cls-11{fill:#ea5532;}.cls-12{stroke:#e60012;stroke-width:1.1px;}</style></defs><g id="레이어_2" data-name="레이어 2"><g id="레이어_1-2" data-name="레이어 1"><g id="레이어_2-2" data-name="레이어 2"><g id="레이어_1-2-2" data-name="레이어 1-2"><path class="cls-1" d="M229.47,28.59a143.52,143.52,0,1,0,29,200.88h0A143.52,143.52,0,0,0,229.47,28.59Zm-171.21,229a142.4,142.4,0,1,1,199.32-28.78A142.4,142.4,0,0,1,58.26,257.59h0Z"/><path class="cls-2" d="M280.27,183.41l.14-.5c.26-.89.51-1.78.75-2.68l.3-1.17.51-2,.42-1.81c.1-.46.21-.92.31-1.38.17-.8.34-1.59.5-2.39.05-.27.11-.54.16-.81.19-1,.36-2,.53-2.92a.63.63,0,0,1,.05-.3,141.76,141.76,0,0,0,1-40.82v-.1c-.13-1-.27-2.07-.41-3.1a2.78,2.78,0,0,0-.08-.49c-.13-.89-.27-1.79-.42-2.68l-.15-.91c-.13-.75-.26-1.5-.41-2.25-.08-.45-.17-.89-.26-1.34s-.24-1.19-.37-1.79-.25-1.19-.39-1.79l-.3-1.33-.54-2.21-.24-.91c-.22-.87-.46-1.74-.7-2.61a1.74,1.74,0,0,0-.14-.48c-.28-1-.57-2-.88-3v-.1a141.44,141.44,0,0,0-17.48-36.9c-.06-.09-.12-.17-.17-.26-.55-.82-1.11-1.64-1.67-2.45l-.48-.67c-.47-.66-.94-1.33-1.43-2l-.84-1.14c-.37-.5-.74-1-1.12-1.48L255.18,55l-.76-1c-.58-.72-1.17-1.44-1.77-2.15l-.33-.39A141.05,141.05,0,0,0,223,25.34l-.18-.12-1.67-1.1L219.44,23l-.19-.12a141.58,141.58,0,0,0-35.84-16.1l-.5-.14c-.89-.26-1.78-.51-2.68-.74l-1.17-.31-2-.5-1.8-.42-1.39-.32-2.39-.49-.81-.17-2.92-.53-.3,0a141.39,141.39,0,0,0-40.82-1h-.1c-1,.12-2.06.26-3.09.41l-.5.07c-.9.13-1.79.27-2.68.42l-.91.15-2.25.41-1.34.26-1.75.4c-.6.12-1.19.25-1.78.39l-1.34.31c-.74.17-1.48.35-2.21.54l-.9.23c-.88.22-1.75.46-2.62.7l-.48.14c-1,.28-2,.57-3,.88h-.1a142.39,142.39,0,0,0-36.9,17.48l-.26.17c-.82.55-1.64,1.11-2.45,1.68l-.67.47-2,1.43-1.13.85-1.48,1.11c-.55.43-1.09.85-1.63,1.29l-1,.75c-.72.58-1.44,1.17-2.15,1.77l-.39.33a141.62,141.62,0,0,0-26.2,29.3l-.12.19c-.37.55-.73,1.11-1.1,1.67L23,67.62l-.12.2a141.86,141.86,0,0,0-16.1,35.83,1.78,1.78,0,0,1-.14.5c-.26.89-.51,1.79-.74,2.68-.11.39-.21.78-.31,1.17-.17.67-.34,1.34-.5,2s-.29,1.2-.42,1.81c-.11.46-.22.92-.32,1.38-.17.8-.33,1.6-.49,2.39-.06.27-.11.54-.17.81-.18,1-.36,2-.53,2.92a.63.63,0,0,1,0,.3,142.46,142.46,0,0,0-1,40.82v.1c.12,1,.26,2.07.41,3.1a1.26,1.26,0,0,0,.07.5q.19,1.34.42,2.67l.15.92c.13.74.27,1.49.41,2.23.08.45.17.91.26,1.36s.24,1.19.37,1.78.25,1.19.39,1.79c.1.44.2.89.31,1.33q.25,1.11.54,2.22c.07.3.15.59.23.89.22.88.46,1.75.7,2.62a1.74,1.74,0,0,0,.14.48c.28,1,.57,2,.88,3v.09a142.71,142.71,0,0,0,17.48,36.9l.18.26c.54.82,1.1,1.64,1.67,2.45l.47.67c.47.67.95,1.33,1.43,2,.28.39.56.77.85,1.15l1.11,1.47,1.34,1.6c.25.32.5.64.76,1,.58.72,1.17,1.44,1.77,2.15l.33.39a142.13,142.13,0,0,0,29.3,26.2l.19.13c.55.37,1.11.73,1.67,1.09L67.62,264l.2.12a141.76,141.76,0,0,0,35.83,16.13l.5.14c.89.26,1.79.51,2.68.75l1.17.3,2,.51,1.81.42,1.38.31,2.4.5.8.16,2.93.53.29.05a142.11,142.11,0,0,0,40.82,1h.1l3.1-.41.49-.08c.9-.13,1.79-.27,2.68-.42l.91-.15c.75-.13,1.5-.26,2.25-.41l1.34-.26,1.79-.37c.6-.12,1.19-.25,1.79-.39l1.34-.3,2.2-.54.91-.23,2.61-.71.48-.13c1-.29,2-.58,3-.89h.11a142,142,0,0,0,36.89-17.48l.26-.17,2.45-1.67.67-.48c.67-.47,1.33-.94,2-1.43l1.15-.85,1.47-1.11,1.64-1.28.94-.75c.72-.59,1.44-1.18,2.15-1.78l.39-.32A141.55,141.55,0,0,0,261.72,223l.13-.18c.37-.56.73-1.12,1.09-1.68l1.08-1.67.12-.2A141.51,141.51,0,0,0,280.27,183.41Z"/><line class="cls-3" x1="188.62" y1="8.42" x2="188.14" y2="9.84"/><line class="cls-4" x1="187.18" y1="12.72" x2="99.4" y2="275.78"/><line class="cls-3" x1="98.92" y1="277.22" x2="98.44" y2="278.64"/><line class="cls-3" x1="100.59" y1="7.72" x2="101.04" y2="9.15"/><line class="cls-4" x1="101.96" y1="12.04" x2="185.56" y2="276.46"/><line class="cls-3" x1="186.02" y1="277.91" x2="186.47" y2="279.34"/><line class="cls-3" x1="28.97" y1="58.9" x2="30.17" y2="59.79"/><line class="cls-4" x1="32.61" y1="61.59" x2="255.67" y2="226.37"/><line class="cls-3" x1="256.89" y1="227.27" x2="258.09" y2="228.16"/><line class="cls-3" x1="1.1" y1="142.4" x2="2.6" y2="142.41"/><line class="cls-4" x1="5.63" y1="142.44" x2="282.95" y2="144.64"/><line class="cls-3" x1="284.46" y1="144.65" x2="285.96" y2="144.66"/><line class="cls-3" x1="27.64" y1="226.33" x2="28.86" y2="225.46"/><line class="cls-4" x1="31.33" y1="223.7" x2="256.97" y2="62.48"/><line class="cls-3" x1="258.2" y1="61.6" x2="259.42" y2="60.73"/></g></g><g id="레이어_2-3" data-name="레이어 2"><g id="레이어_1-2-3" data-name="레이어 1-2"><path class="cls-5" d="M85.09,221.68A97.59,97.59,0,1,0,65.37,85.09h0A97.58,97.58,0,0,0,85.06,221.67ZM201.51,65.93A96.84,96.84,0,1,1,65.93,85.54,96.85,96.85,0,0,1,201.51,65.93Z"/><path class="cls-6" d="M50.54,116.41l-.09.33q-.27.92-.51,1.83l-.21.79c-.11.46-.23.91-.34,1.37s-.19.82-.29,1.23l-.17,1c-.12.54-.23,1.08-.34,1.63a2.82,2.82,0,0,1-.11.55c-.13.67-.25,1.34-.36,2v.2a96.81,96.81,0,0,0-.67,27.77v.06c.09.71.18,1.41.28,2.11a.76.76,0,0,0,.05.33c.09.61.18,1.22.29,1.83a3.23,3.23,0,0,0,.1.61c.09.51.18,1,.28,1.53a5,5,0,0,0,.17.92c.06.31.17.81.25,1.21l.27,1.22.21.91c.12.5.24,1,.37,1.5l.15.61.48,1.78a1,1,0,0,0,.1.33c.19.68.39,1.36.59,2v.07a96.28,96.28,0,0,0,11.89,25.07l.12.18c.37.55.75,1.11,1.14,1.66l.32.46,1,1.35.58.77.76,1c.28.37.58.74.87,1.11l.51.64c.4.49.8,1,1.21,1.46l.22.27A96,96,0,0,0,89.5,223.93l.13.09,1.14.74,1.13.74.14.08a95.72,95.72,0,0,0,24.37,11l.34.09c.6.18,1.21.35,1.82.51l.8.21,1.36.34,1.2.2.94.21,1.63.34.55.11,2,.36h.21a95.67,95.67,0,0,0,27.76.67h.06l2.11-.28.34-.05,1.82-.29.62-.1,1.52-.28.91-.17,1.23-.26,1.2-.26.92-.21,1.5-.37.61-.15,1.78-.48.33-.1c.68-.19,1.36-.39,2-.6H172a96.24,96.24,0,0,0,25.09-11.89l.17-.11c.56-.38,1.12-.75,1.67-1.14l.46-.32,1.35-1,.77-.58,1-.76,1.11-.87.64-.51c.49-.4,1-.8,1.46-1.21l.27-.22a96.36,96.36,0,0,0,17.9-19.86l.09-.13.74-1.14c.25-.38.5-.76.74-1.14l.08-.13a96.41,96.41,0,0,0,11-24.37l.09-.34c.18-.61.35-1.21.51-1.82l.21-.8c.11-.45.23-.91.34-1.36s.19-.82.29-1.23l.21-.94c.12-.54.23-1.09.34-1.63a2.82,2.82,0,0,1,.11-.55l.36-2v-.21a96.37,96.37,0,0,0,.67-27.76v-.07c-.09-.7-.18-1.4-.28-2.1a.83.83,0,0,0-.05-.34c-.09-.6-.19-1.21-.29-1.82a4.69,4.69,0,0,0-.1-.62c-.09-.51-.18-1-.28-1.52-.06-.31-.11-.61-.18-.92s-.16-.81-.25-1.21-.17-.81-.26-1.22l-.21-.91c-.12-.5-.24-1-.37-1.5l-.15-.61-.48-1.78a1.39,1.39,0,0,0-.1-.33c-.19-.68-.39-1.36-.6-2V115a96.66,96.66,0,0,0-12-25,1.74,1.74,0,0,0-.11-.18c-.38-.56-.75-1.11-1.14-1.66l-.32-.46-1-1.35-.58-.77-.76-1-.87-1.11-.51-.64c-.4-.49-.8-1-1.21-1.46l-.22-.27a96.76,96.76,0,0,0-19.92-17.81l-.13-.09-1.14-.74-1.14-.74-.13-.08a96.57,96.57,0,0,0-24.37-11l-.33-.09-1.8-.55-.79-.21-1.37-.34-1.23-.29-.94-.16-1.63-.34-.59-.15c-.66-.13-1.32-.25-2-.36h-.2A97.09,97.09,0,0,0,132,47.41h0l-2.11.28-.33.05c-.61.09-1.22.18-1.83.29l-.62.1-1.52.28-.92.17-1.21.25-1.22.27-.91.21-1.5.37-.62.15-1.77.48-.33.09-2,.6H115a96.54,96.54,0,0,0-25,11.93l-.18.12c-.56.37-1.11.75-1.66,1.14l-.46.32-1.35,1-.78.58-1,.76c-.37.28-.74.58-1.11.87l-.64.51-1.52,1.13-.26.22A96.73,96.73,0,0,0,63.16,89.5l-.09.13c-.25.38-.5.76-.74,1.14s-.5.75-.74,1.13l-.08.14A96.29,96.29,0,0,0,50.54,116.41Z"/><line class="cls-3" x1="112.86" y1="235.4" x2="113.34" y2="233.98"/><line class="cls-4" x1="114.3" y1="231.1" x2="173.23" y2="54.51"/><line class="cls-3" x1="173.71" y1="53.07" x2="174.18" y2="51.65"/><line class="cls-3" x1="172.72" y1="235.87" x2="172.27" y2="234.44"/><line class="cls-4" x1="171.36" y1="231.56" x2="115.23" y2="54.05"/><line class="cls-3" x1="114.78" y1="52.61" x2="114.33" y2="51.17"/><line class="cls-3" x1="221.43" y1="201.07" x2="220.22" y2="200.18"/><line class="cls-4" x1="217.79" y1="198.38" x2="68.04" y2="87.76"/><line class="cls-3" x1="66.83" y1="86.87" x2="65.62" y2="85.97"/><line class="cls-3" x1="240.38" y1="144.29" x2="238.88" y2="144.28"/><line class="cls-4" x1="235.85" y1="144.26" x2="49.69" y2="142.78"/><line class="cls-3" x1="48.17" y1="142.77" x2="46.67" y2="142.76"/><line class="cls-3" x1="222.33" y1="87.22" x2="221.11" y2="88.09"/><line class="cls-4" x1="218.65" y1="89.85" x2="67.17" y2="198.08"/><line class="cls-3" x1="65.94" y1="198.96" x2="64.72" y2="199.83"/></g></g><path class="cls-7" d="M196,174.17h0l.66-1.15.1-.19.54-1a2.31,2.31,0,0,0,.18-.35c.16-.29.3-.58.44-.86s.18-.35.26-.53l.33-.7c.12-.24.22-.47.33-.71l.24-.53.39-.9.15-.36c.15-.35.29-.71.43-1.07a1.19,1.19,0,0,0,.08-.2c.16-.4.32-.83.47-1.24h0c.11-.28.21-.57.3-.85a59.63,59.63,0,0,0,3.25-16.19v-.13a8.93,8.93,0,0,1,.06-1.26V140.4a60.18,60.18,0,0,0-2.53-14.33c-.22-.69-.44-1.4-.69-2.1v-.09c-.09-.26-.19-.53-.29-.8s-.19-.54-.28-.8v-.09a60.37,60.37,0,0,0-8-14.69l-.13-.18c-.24-.31-.47-.63-.72-.94-.11-.13-.21-.27-.32-.41l-.56-.68c-.15-.21-.33-.4-.5-.61l-.38-.46-.69-.79a1.47,1.47,0,0,1-.23-.26c-.28-.31-.57-.62-.86-.92a.44.44,0,0,1-.08-.11,60.94,60.94,0,0,0-7.62-6.82,59,59,0,0,0-6-4h0c-.38-.23-.77-.44-1.15-.66l-.19-.1L172,90l-.35-.18-.87-.44-.52-.26-.71-.33c-.23-.12-.46-.22-.71-.33l-.53-.24-.89-.38-.49-.31-1.08-.44-.19-.08-1.25-.47h0a60.62,60.62,0,0,0-17-3.55h-.13l-1.35-.07h-2.81l-.89-.05h-.52l-1.18.09h-.22a60.26,60.26,0,0,0-16.38,3.23h-.09l-.8.28-.8.29h-.09a60.43,60.43,0,0,0-13.19,7c-.51.35-1,.71-1.5,1.07l-.18.14-.94.71-.4.32-.7.56-.61.5-.45.39-.78.68-.27.24c-.31.28-.63.56-.93.85a.28.28,0,0,1-.1.09A60.21,60.21,0,0,0,91.18,113h0c-.23.39-.45.78-.67,1.17,0,0-.06.11-.09.17l-.55,1-.18.35c-.15.28-.3.57-.44.86s-.17.35-.26.52l-.33.72c-.11.22-.22.46-.33.7l-.24.54c-.13.29-.25.58-.39.88a1.94,1.94,0,0,1-.15.36c-.14.36-.29.72-.43,1.07l-.08.2-.47,1.25h0c-.1.28-.2.56-.29.85A60.41,60.41,0,0,0,83,139.88a.28.28,0,0,1,0,.13l-.11,1.27v4.15a9.32,9.32,0,0,0,.05,1.18v.22a59.91,59.91,0,0,0,2.58,14.37c.22.7.44,1.4.69,2.11v.09c.1.26.19.53.29.8s.19.53.29.79v.09a59.83,59.83,0,0,0,8,14.69c0,.07.09.12.13.19l.72.94.32.4.55.69.5.61c.14.15.27.31.4.46l.68.78c.09.09.16.18.24.27l.85.93.09.09a60,60,0,0,0,7.6,6.83,58.46,58.46,0,0,0,6,4h0l1.16.66.18.1,1,.54a3,3,0,0,0,.36.18c.28.16.57.3.86.45l.52.25c.23.11.47.23.71.33l.7.33.53.24.9.39.36.15,1.07.43.2.08,1.24.47h0a60,60,0,0,0,17,3.54h.12l1.27.06h5.59a60.31,60.31,0,0,0,16.44-3.23h.08l.81-.29c.26-.1.53-.18.79-.29h.09a60.07,60.07,0,0,0,13.2-7c.5-.35,1-.71,1.49-1.08l.18-.14,1-.72.4-.32c.23-.18.46-.36.68-.55l.61-.5.47-.39.78-.69.27-.23.92-.86.1-.09A60.48,60.48,0,0,0,196,174.17Zm-11.65,12.71-.09.09-.91.85-.26.22c-.25.23-.51.45-.77.67l-.45.38c-.2.18-.4.34-.6.5l-.67.55-.4.31-.92.7-.17.13c-.49.36-1,.71-1.47,1.06a58.59,58.59,0,0,1-12.94,6.81h-.09c-.26.11-.52.2-.78.29s-.52.2-.79.28h-.09a59,59,0,0,1-16.1,3.16h-5.48a8.51,8.51,0,0,1-1.24-.06H140a58.9,58.9,0,0,1-16.69-3.47h0l-1.22-.45-.19-.09-1-.41-.36-.16-.87-.37-.53-.24-.68-.32-.69-.33-.52-.25-.85-.43-.34-.17-1-.54-.18-.11-1.14-.64h0a58.9,58.9,0,0,1-13.35-10.61l-.09-.1-.84-.91c-.07-.09-.15-.17-.23-.26-.23-.25-.45-.51-.67-.76l-.51-.32-.5-.6-.54-.67c-.11-.13-.21-.26-.31-.4-.24-.3-.47-.61-.71-.92l-.07-.22A58.78,58.78,0,0,1,88,164.67v-.1c-.11-.25-.19-.52-.29-.78s-.19-.52-.28-.78v-.1a15,15,0,0,1-.78-2,58.77,58.77,0,0,1-2.49-14,.74.74,0,0,0,0-.21v-5.24l.06-1.24v-.13a59.3,59.3,0,0,1,3.15-16c.09-.27.19-.54.29-.82h0c.15-.4.3-.81.46-1.21l.08-.2.42-1a1,1,0,0,1,.16-.36c.11-.29.25-.58.37-.87s.16-.35.23-.53.21-.45.32-.68.22-.46.34-.69.16-.35.25-.52.28-.57.43-.85l.16-.48c.18-.33.35-.67.54-1a1.62,1.62,0,0,1,.1-.18c.21-.38.43-.76.65-1.14h0a59.88,59.88,0,0,1,10.65-13.34l.09-.08.91-.84.26-.23c.26-.24.51-.46.77-.68l.45-.38.6-.49.67-.54c.14-.12.26-.22.4-.32l.92-.7.18-.13c.48-.36,1-.71,1.46-1.06a59.48,59.48,0,0,1,13-6.82h.08l.78-.29.79-.28h.09a60,60,0,0,1,16.06-3.22h.21l1.16,0h3.76a1,1,0,0,0,.35,0l1.23.06h.13a59.69,59.69,0,0,1,16.71,3.49h0l1.23.46.2.08,1,.43.37.15c.28.11.57.25.86.38l.53.23.69.31.69.33.51.25c.29.14.57.3.85.44l.34.18,1,.53.17.1,1.14.65h0a58.47,58.47,0,0,1,5.89,3.92,59.36,59.36,0,0,1,7.53,6.72l.09.09.91,1c.07.08.14.17.22.25.23.27.45.51.67.78s.26.29.38.45.33.39.5.59l.55.68.3.39c.25.31.47.62.71.92l.13.18a59.11,59.11,0,0,1,7.87,14.4v.09l.28.78c.1.26.2.53.28.79v.09c.23.69.46,1.38.67,2.06a59.45,59.45,0,0,1,2.49,14v.21a8.93,8.93,0,0,0,0,1.16v4.07a8.65,8.65,0,0,1-.06,1.24v.12a58.8,58.8,0,0,1-3.19,15.87c-.08.29-.19.56-.29.83h0c-.15.41-.3.82-.46,1.22l-.08.2c-.13.35-.28.7-.42,1l-.15.37-.38.86-.23.53c-.11.23-.22.46-.32.69l-.33.69c-.08.17-.17.34-.25.52s-.28.57-.43.84l-.18.34c-.17.34-.36.67-.53,1l-.11.19c-.21.38-.42.76-.64,1.13h0A59,59,0,0,1,184.31,186.88Z"/><path class="cls-8" d="M142.42,203.06h-1.09a8.51,8.51,0,0,1-1.24-.06H140a58.9,58.9,0,0,1-16.69-3.47h0l-1.22-.45-.19-.09-1-.41-.36-.16-.87-.37-.53-.24-.68-.32-.69-.33-.52-.25-.85-.43-.34-.17-1-.54-.18-.11L113.7,195h0a58.9,58.9,0,0,1-13.35-10.61l-.09-.1-.84-.91c-.07-.09-.15-.17-.23-.26-.23-.25-.45-.51-.67-.76l-.51-.5-.5-.6-.54-.67c-.11-.13-.21-.26-.31-.4-.24-.3-.47-.61-.71-.92l-.07-.22A58.78,58.78,0,0,1,88,164.67v-.1c-.11-.25-.19-.52-.29-.78s-.19-.52-.28-.78v-.1a15,15,0,0,1-.78-2l56.91-17.31h0Z"/><path class="cls-8" d="M199.76,163l-56.19-19.47h0l35.88-47.44a59.72,59.72,0,0,1,7.43,6.69l.09.09.91,1c.07.08.14.17.22.25.23.27.45.51.67.78s.26.29.38.45.33.39.5.59l.55.68.3.39c.25.31.47.62.71.92l.13.18a59.11,59.11,0,0,1,7.87,14.4v.09l.28.78c.1.26.2.53.28.79v.09c.23.69.46,1.38.67,2.06a59.45,59.45,0,0,1,2.49,14v.21a8.93,8.93,0,0,0,0,1.16v4.07a8.65,8.65,0,0,1-.06,1.24v.12A58.77,58.77,0,0,1,199.76,163Z"/><path class="cls-8" d="M143.57,143.56h0L86.65,160.88a58.77,58.77,0,0,1-2.49-14,.74.74,0,0,0,0-.21v-5.24l.06-1.24v-.13a59.3,59.3,0,0,1,3.15-16c.09-.27.19-.54.29-.82h0c.15-.4.3-.81.46-1.21l.08-.2.42-1a1,1,0,0,1,.16-.36c.11-.29.25-.58.37-.87s.16-.35.23-.53.21-.45.32-.68.22-.46.34-.69.16-.35.25-.52.28-.57.43-.85l.16-.48c.18-.33.35-.67.54-1a1.62,1.62,0,0,1,.1-.18c.21-.38.43-.76.65-1.14h0a59.88,59.88,0,0,1,10.65-13.34l.09-.08.91-.84.26-.23c.26-.24.51-.46.77-.68l.45-.38.6-.49.67-.54c.14-.12.26-.22.4-.32l.92-.7.18-.13c.48-.36,1-.71,1.46-1.06Z"/><path class="cls-8" d="M179.45,96.13l-35.88,47.43-34-48.79a59.48,59.48,0,0,1,13-6.82h.08l.78-.29.79-.28h.09a60.07,60.07,0,0,1,16-3.22h.21l1.16,0h3.76a1,1,0,0,0,.35,0l1.23.06h.13a59.69,59.69,0,0,1,16.71,3.49h0l1.23.46.2.08,1,.43.37.15c.28.11.57.25.86.38l.53.23.69.31.69.33.51.25c.29.14.57.3.85.44l.34.18,1,.53.17.1,1.14.65h0A56.83,56.83,0,0,1,179.45,96.13Z"/><path class="cls-8" d="M184.31,186.88l-.09.09-.91.85-.26.22c-.25.23-.51.45-.77.67l-.45.38c-.2.18-.4.34-.6.5l-.67.55-.4.31-.92.7-.17.13c-.49.36-1,.71-1.47,1.06a58.59,58.59,0,0,1-12.94,6.81h-.09c-.26.11-.52.2-.78.29s-.52.2-.79.28h-.09a59,59,0,0,1-16.1,3.16h-4.39l1.15-59.49,56.19,19.47c-.08.29-.19.56-.29.83h0c-.15.41-.3.82-.46,1.22l-.08.2c-.13.35-.28.7-.42,1l-.15.37-.38.86-.23.53c-.11.23-.22.46-.32.69l-.33.69c-.08.17-.17.34-.25.52s-.28.57-.43.84l-.18.34c-.17.34-.36.67-.53,1l-.11.19c-.21.38-.42.76-.64,1.13h0A59.07,59.07,0,0,1,184.31,186.88Z"/><g id="레이어_2-4" data-name="레이어 2"><g id="레이어_1-2-4" data-name="레이어 1-2"><path class="cls-9" d="M165.55,123.93l-11.21,2.69a.87.87,0,0,0-.79.95,1,1,0,0,0,.29.56l1.73,2-6.68,5.81a10.17,10.17,0,1,0,3.36,3.89l6.68-5.81,1.72,2a.87.87,0,0,0,1.19.3.88.88,0,0,0,.41-.57L166.49,125c.32-.8-.11-1.29-.94-1.08"/><path class="cls-10" d="M165.55,123.93l-11.21,2.69a.87.87,0,0,0-.79.95,1,1,0,0,0,.29.56l1.73,2-6.68,5.81a10.17,10.17,0,1,0,3.36,3.89l6.68-5.81,1.72,2a.87.87,0,0,0,1.19.3.88.88,0,0,0,.41-.57L166.49,125C166.81,124.21,166.38,123.72,165.55,123.93Z"/><path class="cls-11" d="M146.44,141.49a4.13,4.13,0,1,0-.41,5.83,4.12,4.12,0,0,0,.41-5.83"/><path class="cls-12" d="M146.44,141.49a4.13,4.13,0,1,0-.41,5.83A4.12,4.12,0,0,0,146.44,141.49Z"/></g></g></g></g></svg>