<svg xmlns="http://www.w3.org/2000/svg" viewBox="0 0 144.32 104.02"><defs><style>.cls-1{fill:#e60012;}</style></defs><g id="레이어_2" data-name="레이어 2"><g id="레이어_1-2" data-name="레이어 1"><path class="cls-1" d="M57.85,104,0,83.66l36.5-49,.8.55A61.4,61.4,0,0,1,49.46,46.94L117.12,0l.59.68c.29.34,29.15,34.24,26.43,83.71l0,1h-1l-81.65-.75c-.14,3-.76,12.09-3.29,18.54ZM3.23,82.67l53.44,18.81c2.56-7.32,2.86-17.83,2.86-17.94l0-1,82.65.76c2.07-44.27-21.44-75.65-25.43-80.64L49,49.67l-.58-.77A62.25,62.25,0,0,0,36.94,37.38Z"/></g></g></svg>