<svg xmlns="http://www.w3.org/2000/svg" viewBox="0 0 121.29 121.29"><defs><style>.cls-1{fill:#0083c9;}.cls-2{fill:#52a5dc;stroke:#0083c9;stroke-miterlimit:10;}</style></defs><g id="레이어_2" data-name="레이어 2"><g id="레이어_1-2" data-name="레이어 1"><path class="cls-1" d="M113.08,91.29h0l.66-1.15.1-.19.54-1a2.31,2.31,0,0,0,.18-.35c.16-.29.3-.58.44-.86s.18-.35.26-.53l.33-.7c.12-.24.22-.47.33-.71l.24-.53.39-.9.15-.36c.15-.35.29-.71.43-1.07a1.19,1.19,0,0,0,.08-.2c.16-.4.32-.83.47-1.24h0c.11-.28.21-.57.3-.85a59.71,59.71,0,0,0,3.25-16.19v-.13a8.93,8.93,0,0,1,.06-1.26V57.52a60.18,60.18,0,0,0-2.53-14.33c-.22-.69-.44-1.4-.69-2.1V41c-.09-.26-.19-.53-.29-.8s-.19-.54-.28-.8v-.09a60,60,0,0,0-8-14.69l-.13-.18c-.24-.31-.47-.63-.72-.94-.11-.13-.21-.27-.32-.41l-.56-.68c-.15-.21-.33-.4-.5-.61l-.38-.46-.69-.79a2.85,2.85,0,0,1-.23-.26c-.28-.31-.57-.62-.86-.92a.44.44,0,0,1-.08-.11,60.16,60.16,0,0,0-7.62-6.82,57.39,57.39,0,0,0-6-4h0c-.38-.23-.77-.44-1.15-.66l-.19-.1-1-.55L88.72,7l-.87-.44-.52-.26-.71-.33c-.23-.12-.46-.22-.71-.33l-.53-.24L84.49,5,84,4.66l-1.08-.44-.19-.08-1.25-.47h0a60.69,60.69,0,0,0-17-3.55h-.13c-.5,0-.95-.06-1.35-.07H60.19L59.3,0h-.52L57.6.09h-.22A59.51,59.51,0,0,0,41,3.32h-.09l-.8.28-.8.29h-.09a60.43,60.43,0,0,0-13.19,7c-.51.35-1,.71-1.5,1.07l-.18.14-.94.71-.4.32-.7.56-.61.5-.45.39-.78.68-.27.24c-.31.28-.63.56-.93.85a.28.28,0,0,1-.1.09A60.21,60.21,0,0,0,8.3,30.09h0c-.23.39-.45.78-.67,1.17,0,0-.06.11-.09.17l-.55,1a2.31,2.31,0,0,0-.18.35c-.15.28-.3.57-.44.86s-.17.35-.26.52l-.33.72c-.11.22-.22.46-.33.7l-.24.54c-.13.29-.25.58-.39.88a2.75,2.75,0,0,1-.15.36c-.14.36-.29.72-.43,1.07l-.08.2-.47,1.25h0c-.1.28-.2.56-.29.85A60.33,60.33,0,0,0,.11,57a.29.29,0,0,1,0,.13L0,58.4v4.15a9.32,9.32,0,0,0,.05,1.18V64A60,60,0,0,0,2.63,78.32c.22.7.44,1.4.69,2.11v.09c.1.26.19.53.29.8s.19.53.29.79v.09a60,60,0,0,0,8,14.69c0,.07.09.12.13.19l.72.94.32.4.55.69.5.61c.14.15.27.31.4.46l.68.78c.09.09.16.18.24.27l.85.93a.38.38,0,0,1,.09.09,60.76,60.76,0,0,0,7.6,6.83,60.15,60.15,0,0,0,6,4h0l1.16.66.18.1,1,.54a2.42,2.42,0,0,0,.36.18c.28.16.57.3.86.45l.52.25c.23.11.47.23.71.33l.7.33.53.24c.31.13.6.27.9.39l.36.15,1.07.43.2.08,1.24.47h0a60.68,60.68,0,0,0,17,3.54h.12l1.27.06h3.67a4.34,4.34,0,0,0,.51,0h1.19a.81.81,0,0,1,.22,0,60.68,60.68,0,0,0,16.44-3.23h.08l.81-.29c.26-.1.53-.18.79-.29H82a60.5,60.5,0,0,0,13.2-7c.5-.35,1-.71,1.49-1.08l.18-.14,1-.72.4-.32c.23-.18.46-.36.68-.55l.61-.5.47-.39.78-.69.27-.23L102,105l.1-.09A60.75,60.75,0,0,0,113.08,91.29ZM101.43,104l-.09.09-.91.85a2.75,2.75,0,0,0-.26.22c-.25.23-.51.45-.77.67l-.45.38c-.2.18-.4.34-.6.5l-.67.55-.4.31-.92.7-.17.13c-.49.36-1,.71-1.47,1.06a59.24,59.24,0,0,1-12.94,6.81.14.14,0,0,1-.09,0c-.26.11-.52.2-.78.29s-.52.2-.79.28H80A59.32,59.32,0,0,1,63.93,120H58.45a8.51,8.51,0,0,1-1.24-.06h-.13a59.25,59.25,0,0,1-16.69-3.47h0L39.17,116l-.19-.09-1-.41-.36-.16-.87-.37-.53-.24-.68-.32-.69-.33-.52-.25-.85-.43-.34-.17-1-.54L32,112.6,30.82,112h0a55.38,55.38,0,0,1-5.9-3.92,58.35,58.35,0,0,1-7.45-6.69l-.09-.1-.84-.91c-.07-.09-.15-.17-.23-.26-.23-.25-.45-.51-.67-.76L15.13,99l-.5-.6-.54-.67c-.11-.13-.21-.26-.31-.4-.24-.3-.47-.61-.71-.92L13,96.19a59.15,59.15,0,0,1-7.88-14.4v-.1c-.11-.25-.19-.52-.29-.78s-.19-.52-.28-.78V80a15,15,0,0,1-.78-2A58.45,58.45,0,0,1,1.28,64V58.55l.06-1.24v-.13a59.23,59.23,0,0,1,3.15-16c.09-.27.19-.54.29-.82h0c.15-.4.3-.81.46-1.21l.08-.2.42-1a1,1,0,0,1,.16-.36c.11-.29.25-.58.37-.87s.16-.35.23-.53.21-.45.32-.68.22-.46.34-.69a5,5,0,0,1,.25-.52c.13-.28.28-.57.43-.85L8,33c.18-.33.35-.67.54-1a1.62,1.62,0,0,1,.1-.18c.21-.38.43-.76.65-1.14h0A59.65,59.65,0,0,1,19.94,17.34l.09-.08.91-.84.26-.23c.26-.24.51-.46.77-.68l.45-.38.6-.49.67-.54c.14-.12.26-.22.4-.32l.92-.7.18-.13c.48-.36,1-.71,1.46-1.06a59.06,59.06,0,0,1,13-6.82h.08l.78-.29.79-.28h.09A59.5,59.5,0,0,1,57.45,1.28h.21l1.16-.05h3.76a2,2,0,0,0,.35,0l1.23.06h.13A59.34,59.34,0,0,1,81,4.78h0l1.23.46.2.08,1,.43.37.15c.28.11.57.25.86.38l.53.23.69.31.69.33.51.25c.29.14.57.3.85.44l.34.18,1,.53.17.1,1.14.65h0a56.28,56.28,0,0,1,5.89,3.92A58.6,58.6,0,0,1,104,19.94l.09.09.91,1c.07.08.14.17.22.25.23.27.45.51.67.78s.26.29.38.45.33.39.5.59l.55.68.3.39c.25.31.47.62.71.92l.13.18a59.11,59.11,0,0,1,7.87,14.4.14.14,0,0,0,0,.09l.28.78c.1.26.2.53.28.79v.09c.23.69.46,1.38.67,2.06a59.87,59.87,0,0,1,2.49,14,.74.74,0,0,0,0,.21,8.93,8.93,0,0,0,0,1.16v4.07a8.65,8.65,0,0,1-.06,1.24v.12a59,59,0,0,1-3.19,15.87c-.08.29-.19.56-.29.83h0c-.15.41-.3.82-.46,1.22l-.08.2c-.13.35-.28.7-.42,1l-.15.37-.38.86-.23.53c-.11.23-.22.46-.32.69l-.33.69c-.08.17-.17.34-.25.52s-.28.57-.43.84l-.18.34c-.17.34-.36.67-.53,1l-.11.19c-.21.38-.42.76-.64,1.13h0A59.39,59.39,0,0,1,101.43,104Z"/><path class="cls-2" d="M59.54,120.18H58.45a8.51,8.51,0,0,1-1.24-.06h-.13a59.25,59.25,0,0,1-16.69-3.47h0l-1.22-.45-.19-.09-1-.41-.36-.16-.87-.37-.53-.24-.68-.32-.69-.33-.52-.25-.85-.43-.34-.17-1-.54-.18-.11-1.14-.64h0a55.38,55.38,0,0,1-5.9-3.92,58.35,58.35,0,0,1-7.45-6.69l-.09-.1-.84-.91c-.07-.09-.15-.17-.23-.26-.23-.25-.45-.51-.67-.76l-.51-.5-.5-.6-.54-.67c-.11-.13-.21-.26-.31-.4-.24-.3-.47-.61-.71-.92L13,96.19a59.15,59.15,0,0,1-7.88-14.4v-.1c-.11-.25-.19-.52-.29-.78s-.19-.52-.28-.78V80a15,15,0,0,1-.78-2L60.68,60.69h0Z"/><path class="cls-2" d="M116.88,80.16,60.69,60.69h0L96.57,13.25A58.94,58.94,0,0,1,104,19.94l.09.09.91,1c.07.08.14.17.22.25.23.27.45.51.67.78s.26.29.38.45.33.39.5.59l.55.68.3.39c.25.31.47.62.71.92l.13.18a59.11,59.11,0,0,1,7.87,14.4.14.14,0,0,0,0,.09l.28.78c.1.26.2.53.28.79v.09c.23.69.46,1.38.67,2.06a59.87,59.87,0,0,1,2.49,14,.74.74,0,0,0,0,.21,8.93,8.93,0,0,0,0,1.16v4.07a8.65,8.65,0,0,1-.06,1.24v.12A58.84,58.84,0,0,1,116.88,80.16Z"/><path class="cls-2" d="M60.69,60.68h0L3.77,78A58.45,58.45,0,0,1,1.28,64V58.55l.06-1.24v-.13a59.23,59.23,0,0,1,3.15-16c.09-.27.19-.54.29-.82h0c.15-.4.3-.81.46-1.21l.08-.2.42-1a1,1,0,0,1,.16-.36c.11-.29.25-.58.37-.87s.16-.35.23-.53.21-.45.32-.68.22-.46.34-.69a5,5,0,0,1,.25-.52c.13-.28.28-.57.43-.85L8,33c.18-.33.35-.67.54-1a1.62,1.62,0,0,1,.1-.18c.21-.38.43-.76.65-1.14h0A59.65,59.65,0,0,1,19.94,17.34l.09-.08.91-.84.26-.23c.26-.24.51-.46.77-.68l.45-.38.6-.49.67-.54c.14-.12.26-.22.4-.32l.92-.7.18-.13c.48-.36,1-.71,1.46-1.06Z"/><path class="cls-2" d="M96.57,13.25,60.69,60.68l-34-48.79a59.06,59.06,0,0,1,13-6.82h.08l.78-.29.79-.28h.09a59.3,59.3,0,0,1,16-3.22h.21l1.16-.05h3.76a2,2,0,0,0,.35,0l1.23.06h.13A59.34,59.34,0,0,1,81,4.78h0l1.23.46.2.08,1,.43.37.15c.28.11.57.25.86.38l.53.23.69.31.69.33.51.25c.29.14.57.3.85.44l.34.18,1,.53.17.1,1.14.65h0A56.83,56.83,0,0,1,96.57,13.25Z"/><path class="cls-2" d="M101.43,104l-.09.09-.91.85a2.75,2.75,0,0,0-.26.22c-.25.23-.51.45-.77.67l-.45.38c-.2.18-.4.34-.6.5l-.67.55-.4.31-.92.7-.17.13c-.49.36-1,.71-1.47,1.06a59.24,59.24,0,0,1-12.94,6.81.14.14,0,0,1-.09,0c-.26.11-.52.2-.78.29s-.52.2-.79.28H80A59.32,59.32,0,0,1,63.93,120H59.54l1.15-59.49L116.88,80c-.08.29-.19.56-.29.83h0c-.15.41-.3.82-.46,1.22l-.08.2c-.13.35-.28.7-.42,1l-.15.37-.38.86-.23.53c-.11.23-.22.46-.32.69l-.33.69c-.08.17-.17.34-.25.52s-.28.57-.43.84l-.18.34c-.17.34-.36.67-.53,1l-.11.19c-.21.38-.42.76-.64,1.13h0A59.56,59.56,0,0,1,101.43,104Z"/></g></g></svg>